<svg xmlns="http://www.w3.org/2000/svg" xmlns:xlink="http://www.w3.org/1999/xlink" width="783" height="783" viewBox="0 0 783 783">
    <defs>
        <path id="u6ua08kyma" d="M0.173 0.032L400.647 0.032 400.647 114.181 0.173 114.181z"/>
        <path id="mo5ptkshvc" d="M0.215 0.834L220.496 0.834 220.496 220.884 0.215 220.884z"/>
        <path id="dt2nwydpxe" d="M0 0.404L220.872 0.404 220.872 221.239 0 221.239z"/>
    </defs>
    <g fill="none" fill-rule="evenodd" opacity=".4">
        <g>
            <g>
                <path fill="#FACD59" d="M246.672 107c-31.397 0-57.085 25.803-57.085 57.339l-.831 375.322c0 31.535 25.687 57.339 57.084 57.339 31.396 0 57.083-25.804 57.083-57.339l.833-375.322c0-31.536-25.688-57.339-57.084-57.339" transform="translate(456 370) rotate(-45 -239.498 545.349)"/>
                <g transform="translate(456 370) rotate(-45 -239.498 545.349) translate(107.756 190)">
                    <mask id="fqt1hozw4b" fill="#fff">
                        <use xlink:href="#u6ua08kyma"/>
                    </mask>
                    <path fill="#AADDCA" d="M.173 56.813C.173 25.583 25.799.033 57.12.033l286.58.59c31.32 0 56.947 25.551 56.947 56.78 0 31.229-25.626 56.778-56.947 56.778l-286.58-.589c-31.322 0-56.948-25.55-56.948-56.78" mask="url(#fqt1hozw4b)"/>
                </g>
                <g transform="translate(456 370) rotate(-45 -239.498 545.349) translate(190.756)">
                    <mask id="eijyrkc74d" fill="#fff">
                        <use xlink:href="#mo5ptkshvc"/>
                    </mask>
                    <path fill="#FF6E5D" d="M204.49 20.638l-3.821-3.815c-21.342-21.32-56.265-21.32-77.606 0L16.221 123.553c-21.341 21.32-21.341 56.206 0 77.526l3.82 3.815c21.341 21.32 56.264 21.32 77.607 0L204.49 98.165c21.342-21.32 21.342-56.207 0-77.527" mask="url(#eijyrkc74d)"/>
                </g>
                <g transform="translate(456 370) rotate(-45 -239.498 545.349) translate(.756 190)">
                    <mask id="uuwxfgcwlf" fill="#fff">
                        <use xlink:href="#dt2nwydpxe"/>
                    </mask>
                    <path fill="#FF6E5D" d="M20.445 205.465l-4.669-4.667c-21.035-21.033-21.035-55.45 0-76.481L123.932 16.179c21.038-21.033 55.459-21.033 76.495 0l4.668 4.667c21.036 21.033 21.036 55.45 0 76.48L96.94 205.466c-21.035 21.033-55.459 21.033-76.494 0" mask="url(#uuwxfgcwlf)"/>
                </g>
                <path fill="#FFF" d="M303.698 190.019l.005-1.79.053-24.24c0-31.343-25.607-56.989-56.905-56.989-13.492 0-25.911 4.784-35.694 12.719-3.125 2.537-5.977 5.393-8.509 8.524-7.923 9.796-12.7 22.235-12.7 35.746l-.058 25.847-25.23-.04c-15.649 0-29.875 6.412-40.189 16.742-10.313 10.329-16.715 24.577-16.715 40.25 0 31.345 25.606 56.99 56.904 56.99l23.63.038 1.347.003 113.808.181.253-113.981z" transform="translate(456 370) rotate(-45 -239.498 545.349)"/>
            </g>
        </g>
    </g>
</svg>
